<svg width="auto" height="40" viewBox="0 0 2000 667" fill="none" xmlns="http://www.w3.org/2000/svg">
<g clip-path="url(#clip0)">
<path d="M559.72 423V223.416H678.664L673.768 257.112H606.952V310.104H665.128V343.8H606.952V423H559.72ZM765.728 267.768C787.04 267.768 803.552 274.872 815.264 289.08C827.168 303.288 833.12 322.584 833.12 346.968C833.12 362.712 830.432 376.632 825.056 388.728C819.68 400.632 811.904 409.944 801.728 416.664C791.552 423.192 779.456 426.456 765.44 426.456C744.128 426.456 727.52 419.352 715.616 405.144C703.712 390.936 697.76 371.64 697.76 347.256C697.76 331.512 700.448 317.688 705.824 305.784C711.2 293.688 718.976 284.376 729.152 277.848C739.328 271.128 751.52 267.768 765.728 267.768ZM765.728 289.08C739.424 289.08 726.272 308.472 726.272 347.256C726.272 385.848 739.328 405.144 765.44 405.144C791.552 405.144 804.608 385.752 804.608 346.968C804.608 308.376 791.648 289.08 765.728 289.08ZM942.843 267.768C948.219 267.768 953.211 268.344 957.819 269.496L952.923 295.416C948.315 294.264 943.899 293.688 939.675 293.688C930.267 293.688 922.683 297.144 916.923 304.056C911.163 310.968 906.651 321.72 903.387 336.312V423H876.891V271.224H899.643L902.235 302.04C906.267 290.712 911.739 282.168 918.651 276.408C925.563 270.648 933.627 267.768 942.843 267.768ZM1100.88 423H1078.13L1076.11 399.384C1070.35 408.792 1063.73 415.704 1056.24 420.12C1048.75 424.344 1039.63 426.456 1028.88 426.456C1015.63 426.456 1005.27 422.424 997.777 414.36C990.289 406.296 986.545 394.872 986.545 380.088V271.224H1013.04V377.208C1013.04 387.576 1014.87 394.968 1018.51 399.384C1022.16 403.608 1028.11 405.72 1036.37 405.72C1051.15 405.72 1063.83 396.984 1074.39 379.512V271.224H1100.88V423ZM1307.96 267.768C1320.44 267.768 1330.43 271.992 1337.91 280.44C1345.4 288.696 1349.15 299.928 1349.15 314.136V423H1322.65V317.88C1322.65 298.296 1315.55 288.504 1301.34 288.504C1293.85 288.504 1287.51 290.712 1282.33 295.128C1277.15 299.352 1271.58 306.072 1265.63 315.288V423H1239.13V317.88C1239.13 298.296 1232.03 288.504 1217.82 288.504C1210.14 288.504 1203.71 290.712 1198.52 295.128C1193.34 299.544 1187.87 306.264 1182.11 315.288V423H1155.61V271.224H1178.36L1180.67 293.4C1191.99 276.312 1206.59 267.768 1224.44 267.768C1233.85 267.768 1241.82 270.168 1248.35 274.968C1255.07 279.768 1259.87 286.488 1262.75 295.128C1268.7 286.296 1275.23 279.576 1282.33 274.968C1289.63 270.168 1298.17 267.768 1307.96 267.768ZM1448.92 392.76C1448.92 408.696 1446.04 421.848 1440.28 432.216C1434.71 442.584 1427.22 450.648 1417.81 456.408C1408.6 462.36 1397.56 467.448 1384.69 471.672L1372.02 438.264C1380.47 435 1386.8 431.256 1391.03 427.032C1395.25 422.808 1398.04 417.912 1399.38 412.344C1400.92 406.776 1401.68 399.672 1401.68 391.032V223.416H1448.92V392.76ZM1606.85 423H1584.1L1582.08 399.384C1576.32 408.792 1569.7 415.704 1562.21 420.12C1554.72 424.344 1545.6 426.456 1534.85 426.456C1521.6 426.456 1511.23 422.424 1503.75 414.36C1496.26 406.296 1492.51 394.872 1492.51 380.088V271.224H1519.01V377.208C1519.01 387.576 1520.83 394.968 1524.48 399.384C1528.13 403.608 1534.08 405.72 1542.34 405.72C1557.12 405.72 1569.79 396.984 1580.35 379.512V271.224H1606.85V423ZM1773.03 271.224L1721.48 423H1689.51L1637.1 271.224H1665.9L1705.64 399.384L1745.1 271.224H1773.03ZM1916.83 342.648C1916.83 347.064 1916.64 351.576 1916.25 356.184H1819.48C1820.64 372.888 1824.86 385.176 1832.16 393.048C1839.45 400.92 1848.86 404.856 1860.38 404.856C1867.68 404.856 1874.4 403.8 1880.54 401.688C1886.68 399.576 1893.12 396.216 1899.84 391.608L1911.36 407.448C1895.23 420.12 1877.56 426.456 1858.36 426.456C1837.24 426.456 1820.73 419.544 1808.83 405.72C1797.12 391.896 1791.26 372.888 1791.26 348.696C1791.26 332.952 1793.76 319.032 1798.75 306.936C1803.93 294.648 1811.23 285.048 1820.64 278.136C1830.24 271.224 1841.47 267.768 1854.33 267.768C1874.49 267.768 1889.95 274.392 1900.7 287.64C1911.45 300.888 1916.83 319.224 1916.83 342.648ZM1890.62 334.872C1890.62 319.896 1887.64 308.472 1881.69 300.6C1875.74 292.728 1866.81 288.792 1854.91 288.792C1833.21 288.792 1821.4 304.728 1819.48 336.6H1890.62V334.872Z" fill="white"/>
<path d="M52.8 506V88.4H318L305.4 174.2H176.4V265.4H289.8V351.2H176.4V506H52.8ZM479.822 439.4C479.822 475.8 472.822 505.8 458.822 529.4C444.822 553.4 427.022 572 405.422 585.2C384.222 598.4 359.222 609.8 330.422 619.4L297.422 532.4C314.622 526 327.422 518.2 335.822 509C344.222 500.2 349.622 490.2 352.022 479C354.822 467.4 356.222 452.8 356.222 435.2V88.4H479.822V439.4Z" fill="white"/>
</g>
<defs>
<clipPath id="clip0">
<rect width="2000" height="667" fill="white"/>
</clipPath>
</defs>
</svg>
