<?xml version="1.0" standalone="no"?>
<!DOCTYPE svg PUBLIC "-//W3C//DTD SVG 20010904//EN"
 "http://www.w3.org/TR/2001/REC-SVG-20010904/DTD/svg10.dtd">
<svg version="1.0" xmlns="http://www.w3.org/2000/svg"
 width="450.000000pt" height="113.000000pt" viewBox="0 0 450.000000 113.000000"
 preserveAspectRatio="xMidYMid meet">
<metadata>
Created by potrace 1.10, written by Peter Selinger 2001-2011
</metadata>
<g transform="translate(0.000000,113.000000) scale(0.100000,-0.100000)"
fill="#000000" stroke="none">
<path d="M0 565 l0 -565 2250 0 2250 0 0 565 0 565 -2250 0 -2250 0 0 -565z
m4470 0 l0 -535 -2220 0 -2220 0 0 535 0 535 2220 0 2220 0 0 -535z"/>
<path d="M3710 919 c-32 -13 -78 -56 -96 -91 -19 -36 -18 -122 2 -165 34 -70
129 -113 204 -93 49 13 108 63 126 107 26 61 11 147 -34 196 -44 49 -140 71
-202 46z m151 -25 c150 -77 83 -315 -88 -314 -111 1 -194 129 -149 233 38 90
148 127 237 81z"/>
<path d="M244 766 c-3 -8 -4 -82 -1 -163 3 -108 8 -156 19 -178 48 -91 160
-129 253 -86 75 34 105 85 105 177 0 41 4 54 15 54 12 0 15 -17 15 -96 0 -92
1 -97 29 -125 20 -20 40 -29 61 -29 36 0 100 25 100 39 0 5 19 -1 43 -14 54
-32 110 -32 170 -1 l47 23 0 -24 c0 -23 3 -24 53 -21 l52 3 3 117 c3 117 3
118 28 124 14 4 29 3 34 -2 5 -5 11 -61 12 -124 l3 -115 50 0 50 0 3 123 c3
145 22 168 22 26 0 -92 1 -97 29 -125 36 -35 90 -39 139 -9 l33 20 39 -20 c22
-11 56 -20 77 -20 43 0 111 28 132 54 12 14 11 20 -9 41 -27 29 -36 30 -78 10
-18 -10 -41 -13 -56 -9 -25 6 -34 18 -18 27 4 2 2 2 -5 1 -7 -2 -15 1 -18 6
-4 6 27 10 79 10 104 0 121 12 111 74 -12 78 -67 126 -143 126 -47 0 -74 -11
-109 -43 l-23 -20 0 31 c0 30 -2 32 -34 32 -34 0 -35 1 -38 42 -3 46 -17 55
-63 44 -18 -5 -26 -16 -32 -48 -7 -33 -14 -44 -33 -48 -14 -4 -24 -12 -22 -19
1 -8 -10 -4 -27 8 -32 23 -90 28 -123 10 -14 -8 -23 -8 -31 0 -6 6 -28 11 -49
11 l-38 0 0 -47 c0 -45 -1 -46 -13 -23 -20 39 -74 70 -124 70 -48 0 -75 -11
-110 -43 l-23 -20 0 31 c0 30 -2 32 -34 32 -34 0 -35 1 -38 42 -3 46 -17 55
-63 44 -18 -5 -26 -16 -32 -48 -6 -28 -15 -44 -26 -46 -15 -3 -17 5 -17 62 l0
66 -55 0 -55 0 0 -144 c0 -148 -4 -181 -23 -169 -6 4 -7 1 -2 -7 20 -32 -73
-42 -105 -10 -18 18 -20 33 -20 175 l0 155 -55 0 c-39 0 -57 -4 -61 -14z m96
-136 c0 -140 12 -189 48 -209 35 -19 81 -13 107 14 24 23 25 30 26 160 1 74 2
141 3 148 0 7 19 13 44 15 l44 3 -4 -153 c-4 -170 -12 -198 -70 -240 -27 -19
-46 -23 -105 -23 -85 0 -116 17 -150 85 -21 40 -23 59 -23 187 l0 143 40 0 40
0 0 -130z m400 55 l0 -45 41 0 c38 0 40 -1 37 -27 -3 -24 -8 -28 -41 -31 l-38
-3 3 -87 3 -87 28 0 c38 0 58 -32 31 -52 -26 -19 -88 -16 -115 6 -22 17 -24
28 -27 119 -3 89 -6 101 -23 105 -28 7 -24 43 5 51 18 4 25 15 31 43 9 49 12
53 41 53 22 0 24 -4 24 -45z m760 0 l0 -45 40 0 c38 0 40 -2 40 -30 0 -28 -2
-30 -40 -30 l-41 0 3 -87 3 -88 28 0 c38 0 58 -32 31 -52 -26 -19 -88 -16
-114 5 -20 16 -23 30 -28 119 -4 88 -7 102 -23 106 -28 7 -24 44 5 51 18 4 25
15 31 43 9 49 12 53 41 53 22 0 24 -4 24 -45z m-467 -57 c29 -15 57 -70 57
-110 l0 -38 -99 0 -100 0 11 -30 c17 -50 48 -58 140 -35 20 5 29 2 37 -13 18
-33 -29 -57 -111 -57 -57 0 -70 4 -93 25 -39 36 -55 73 -55 125 0 75 39 131
102 145 36 8 82 3 111 -12z m276 11 c50 -17 61 -51 61 -184 l0 -115 -35 0 -35
0 0 101 c0 118 -8 139 -53 139 -52 0 -57 -12 -57 -132 l0 -108 -40 0 -40 0 0
150 0 150 30 0 c18 0 33 -6 36 -15 5 -12 10 -13 20 -5 11 10 54 26 75 29 3 1
20 -4 38 -10z m484 -11 c29 -15 57 -70 57 -110 l0 -38 -95 0 c-88 0 -95 -1
-95 -20 0 -28 35 -60 67 -60 15 0 42 5 60 12 29 10 36 10 51 -5 16 -17 16 -19
-8 -37 -51 -40 -153 -39 -197 2 -65 59 -70 187 -10 237 45 37 120 45 170 19z
m-988 -102 c-4 -23 -2 -59 3 -79 9 -32 8 -36 -5 -28 -9 4 -23 6 -32 4 -14 -3
-16 6 -14 69 1 40 2 73 2 73 1 0 13 2 27 3 24 2 25 0 19 -42z m761 2 c-3 -24
-2 -60 3 -81 7 -30 7 -36 -4 -27 -7 6 -20 8 -29 4 -14 -5 -16 4 -16 70 0 75 0
76 26 76 25 0 26 -2 20 -42z m-466 -89 c0 -27 -2 -30 -15 -19 -8 7 -12 16 -10
20 6 9 -29 0 -77 -19 -32 -12 -72 -1 -81 23 -5 13 8 16 81 19 48 1 90 4 95 5
4 1 7 -12 7 -29z"/>
<path d="M922 574 c-41 -29 -28 -44 38 -44 65 0 76 12 42 43 -23 21 -51 22
-80 1z m75 -19 c2 -6 -14 -10 -37 -10 -39 0 -47 4 -33 19 10 10 66 3 70 -9z"/>
<path d="M1680 570 c-32 -32 -24 -40 40 -40 65 0 76 12 42 43 -25 23 -58 21
-82 -3z m78 -17 c2 -9 -9 -13 -37 -13 -39 0 -50 8 -34 24 11 11 66 2 71 -11z"/>
<path d="M770 539 c0 -5 5 -7 10 -4 6 3 10 8 10 11 0 2 -4 4 -10 4 -5 0 -10
-5 -10 -11z"/>
<path d="M770 490 c0 -5 5 -10 11 -10 5 0 7 5 4 10 -3 6 -8 10 -11 10 -2 0 -4
-4 -4 -10z"/>
<path d="M770 444 c0 -8 5 -12 10 -9 6 4 8 11 5 16 -9 14 -15 11 -15 -7z"/>
<path d="M1540 540 c0 -7 3 -10 7 -7 3 4 3 10 0 14 -4 3 -7 0 -7 -7z"/>
<path d="M1535 490 c-3 -5 -1 -10 4 -10 6 0 11 5 11 10 0 6 -2 10 -4 10 -3 0
-8 -4 -11 -10z"/>
<path d="M1535 450 c-3 -5 -1 -10 4 -10 6 0 11 5 11 10 0 6 -2 10 -4 10 -3 0
-8 -4 -11 -10z"/>
<path d="M935 440 c3 -5 8 -10 11 -10 2 0 4 5 4 10 0 6 -5 10 -11 10 -5 0 -7
-4 -4 -10z"/>
<path d="M3575 506 c-72 -33 -115 -111 -115 -206 0 -103 -10 -100 319 -100
l280 0 21 27 c19 24 22 37 17 96 -6 85 -40 140 -107 175 -37 19 -54 22 -95 16
-62 -8 -162 -8 -235 0 -38 4 -64 2 -85 -8z m155 -17 c35 -9 60 -8 105 2 78 17
122 13 167 -17 53 -34 78 -88 78 -168 0 -98 8 -96 -303 -96 l-258 0 -26 26
c-24 24 -25 30 -19 85 3 33 12 72 21 88 19 37 69 79 103 87 15 3 32 7 37 9 6
2 19 2 30 -1 11 -2 40 -9 65 -15z"/>
</g>
</svg>
